HIERARCHY
ROOT Hips
{
    OFFSET 0.000000 0.000000 0.000000
    CHANNELS 6 Xposition Yposition Zposition Zrotation Xrotation Yrotation
    JOINT Spine
    {
        OFFSET -0.000000 14.517291 0.000000
        CHANNELS 3 Zrotation Xrotation Yrotation
        JOINT Spine1
        {
            OFFSET -0.000000 37.558300 0.000000
            CHANNELS 3 Zrotation Xrotation Yrotation
            JOINT Neck
            {
                OFFSET -0.000000 37.404057 3.400369
                CHANNELS 3 Zrotation Xrotation Yrotation
                JOINT Head
                {
                    OFFSET -0.000000 24.785618 -3.540803
                    CHANNELS 3 Zrotation Xrotation Yrotation
                    End Site
                    {
                        OFFSET -0.000000 35.408028 0.000000
                    }
                }
            }
            JOINT LeftShoulder
            {
                OFFSET 6.992933 33.973492 -0.192664
                CHANNELS 3 Zrotation Xrotation Yrotation
                JOINT LeftArm
                {
                    OFFSET 21.527611 0.000000 0.000000
                    CHANNELS 3 Zrotation Xrotation Yrotation
                    JOINT LeftForeArm
                    {
                        OFFSET 56.353916 0.000000 0.000000
                        CHANNELS 3 Zrotation Xrotation Yrotation
                        JOINT LeftHand
                        {
                            OFFSET 47.774071 0.000000 0.000000
                            CHANNELS 3 Zrotation Xrotation Yrotation
                            End Site
                            {
                                OFFSET 26.556021 0.000000 0.000000
                            }
                        }
                    }
                }
            }
            JOINT RightShoulder
            {
                OFFSET -7.065357 33.973492 -0.192664
                CHANNELS 3 Zrotation Xrotation Yrotation
                JOINT RightArm
                {
                    OFFSET -21.527611 0.000000 0.000000
                    CHANNELS 3 Zrotation Xrotation Yrotation
                    JOINT RightForeArm
                    {
                        OFFSET -56.353916 0.000000 0.000000
                        CHANNELS 3 Zrotation Xrotation Yrotation
                        JOINT RightHand
                        {
                            OFFSET -47.774071 0.000000 0.000000
                            CHANNELS 3 Zrotation Xrotation Yrotation
                            End Site
                            {
                                OFFSET -26.556021 0.000000 0.000000
                            }
                        }
                    }
                }
            }
        }
    }
    JOINT LeftUpLeg
    {
        OFFSET 17.704014 0.000000 0.000000
        CHANNELS 3 Zrotation Xrotation Yrotation
        JOINT LeftLeg
        {
            OFFSET -0.000000 -81.181816 0.000000
            CHANNELS 3 Zrotation Xrotation Yrotation
            JOINT LeftFoot
            {
                OFFSET -0.000000 -62.821102 0.000000
                CHANNELS 3 Zrotation Xrotation Yrotation
                JOINT LeftToeBase
                {
                    OFFSET -0.000000 -11.507608 26.556021
                    CHANNELS 3 Zrotation Xrotation Yrotation
                    End Site
                    {
                        OFFSET -0.000000 0.000000 7.081605
                    }
                }
            }
        }
    }
    JOINT RightUpLeg
    {
        OFFSET -17.704014 0.000000 0.000000
        CHANNELS 3 Zrotation Xrotation Yrotation
        JOINT RightLeg
        {
            OFFSET -0.000000 -81.181816 0.000000
            CHANNELS 3 Zrotation Xrotation Yrotation
            JOINT RightFoot
            {
                OFFSET -0.000000 -62.821102 0.000000
                CHANNELS 3 Zrotation Xrotation Yrotation
                JOINT RightToeBase
                {
                    OFFSET -0.000000 -11.507608 26.556021
                    CHANNELS 3 Zrotation Xrotation Yrotation
                    End Site
                    {
                        OFFSET -0.000000 0.000000 7.081605
                    }
                }
            }
        }
    }
}
MOTION
Frames:    10
Frame Time:    0.008333
-21.223650    163.278107    -80.258705    -8.540116    -21.911068    41.738346    2.874413    5.309077    -4.874695    4.819999    8.848866    -1.955371    21.664511    -0.876216    -0.824753    -0.415202    -1.081076    -4.351024    12.551438    7.279008    -21.181316    -36.281582    23.022234    -37.817116    -3.234721    -32.678280    -111.332993    -1.531974    -36.467690    -10.193043    10.520627    5.704996    -12.141778    34.618328    16.213329    8.912942    15.584803    -0.244153    45.600708    22.191051    -3.319945    17.806978    23.940437    -0.510292    6.322784    -5.262170    37.156731    -16.105568    9.231084    -22.050127    35.693130    0.000000    0.000000    0.000000    -88.195343    -45.560741    -54.954700    7.761207    15.739355    -8.382248    21.990923    14.470531    -37.139812    0.000000    0.000000    0.000000    
-21.214352    163.268860    -80.273148    -8.535889    -21.911186    41.728271    2.859881    5.273901    -4.884557    4.822155    8.868835    -1.960174    21.678766    -0.836611    -0.809717    -0.470809    -1.098586    -4.338473    12.532849    7.295554    -21.186604    -36.301052    23.042213    -37.800182    -3.222976    -32.731007    -111.326790    -1.497766    -36.506733    -10.152884    10.478769    5.615740    -12.118365    34.638000    15.683835    8.879502    14.553168    -0.945749    46.895569    21.946095    -3.816006    17.796692    23.923662    -0.502243    6.346007    -5.236831    37.159191    -16.117582    9.242382    -22.063646    35.691673    0.000000    0.000000    0.000000    -88.222816    -45.552502    -55.011032    7.789802    15.767299    -8.343253    21.989803    14.436124    -37.168125    0.000000    0.000000    0.000000    
-21.205328    163.263977    -80.283707    -8.523964    -21.922453    41.708740    2.849047    5.251717    -4.892079    4.813752    8.886585    -1.963099    21.681995    -0.805793    -0.786554    -0.492039    -1.091851    -4.312064    12.521540    7.314975    -21.173388    -36.318130    23.058670    -37.793648    -3.199314    -32.769104    -111.301598    -1.532211    -36.510906    -10.150122    10.440985    5.534081    -12.086060    34.661949    15.141886    8.864994    13.311666    -1.577394    48.077515    22.132006    -4.046280    17.735075    23.910313    -0.472556    6.353116    -5.219890    37.151981    -16.128153    9.243813    -22.070915    35.694611    0.000000    0.000000    0.000000    -88.232903    -45.564964    -55.096447    7.799894    15.805114    -8.290656    21.983128    14.406327    -37.174965    0.000000    0.000000    0.000000    
-21.187126    163.258118    -80.287621    -8.505820    -21.947891    41.698696    2.849850    5.232608    -4.900239    4.816416    8.924040    -1.967733    21.627909    -0.802494    -0.782912    -0.464250    -1.076919    -4.294637    12.484079    7.324141    -21.163414    -36.318077    23.069519    -37.781120    -3.202627    -32.783333    -111.307533    -1.496085    -36.531860    -10.107650    10.381708    5.450405    -12.072094    34.690498    14.586945    8.879174    12.032756    -2.321462    49.225208    22.495562    -4.277740    17.835896    23.900497    -0.427068    6.334074    -5.219166    37.140640    -16.102585    9.257674    -22.082073    35.695827    0.000000    0.000000    0.000000    -88.222931    -45.560287    -55.146366    7.818673    15.838729    -8.259013    21.974403    14.383857    -37.179790    0.000000    0.000000    0.000000    
-21.228806    163.226349    -80.340515    -8.481939    -21.918671    41.597042    2.781822    5.293475    -4.828716    4.837033    8.854659    -1.943085    21.615440    -0.801903    -0.769776    -0.479544    -1.064934    -4.281137    12.457851    7.331475    -21.144152    -36.322189    23.067425    -37.780407    -3.202204    -32.770721    -111.297279    -1.530296    -36.515903    -10.132876    10.324162    5.362133    -12.068848    34.678272    13.876978    8.954280    10.958857    -2.827876    50.256351    22.428135    -4.394763    17.948997    23.852005    -0.420629    6.419775    -5.216228    37.179375    -16.079243    9.280903    -22.089510    35.709091    0.000000    0.000000    0.000000    -88.286095    -45.700527    -55.033249    7.838484    15.818963    -8.458836    21.996040    14.505204    -37.209305    0.000000    0.000000    0.000000    
-21.173206    163.249451    -80.313538    -8.495393    -21.981625    41.642323    2.861172    5.200496    -4.886637    4.805233    8.962228    -1.963981    21.557968    -0.791794    -0.776905    -0.424820    -1.062658    -4.269043    12.423408    7.334090    -21.149841    -36.321159    23.070112    -37.754589    -3.204079    -32.760456    -111.300377    -1.533457    -36.508434    -10.124539    10.276742    5.284252    -12.074137    34.650803    13.202272    9.045704    9.939249    -3.506339    51.320641    22.381489    -4.682337    18.092480    23.886999    -0.381934    6.327250    -5.207689    37.162113    -16.083706    9.277355    -22.095161    35.728672    0.000000    0.000000    0.000000    -88.191032    -45.589378    -55.002937    7.902535    15.833247    -8.472685    21.957432    14.398090    -37.158558    0.000000    0.000000    0.000000    
-21.158642    163.252975    -80.320900    -8.504773    -22.004747    41.636665    2.902267    5.168368    -4.896847    4.769649    8.991688    -1.965454    21.550154    -0.783863    -0.776009    -0.424604    -1.082927    -4.265348    12.416656    7.337533    -21.141939    -36.323372    23.055370    -37.749294    -3.225746    -32.708237    -111.310791    -1.543718    -36.483868    -10.148993    10.241303    5.174496    -12.092458    34.600018    12.582486    9.142906    8.850905    -4.018548    52.322929    22.042212    -4.810342    18.141558    23.899860    -0.379290    6.289433    -5.222667    37.181805    -16.083761    9.293177    -22.090681    35.769478    0.000000    0.000000    0.000000    -88.162834    -45.572582    -55.007725    7.926172    15.850826    -8.475168    21.949934    14.376142    -37.175240    0.000000    0.000000    0.000000    
-21.158421    163.251465    -80.336395    -8.512390    -22.015411    41.606148    2.905801    5.155385    -4.879591    4.780954    8.997232    -1.960904    21.517748    -0.796872    -0.775758    -0.414538    -1.080923    -4.260858    12.388983    7.339376    -21.145529    -36.322144    23.037533    -37.741848    -3.238964    -32.661869    -111.327469    -1.485362    -36.460751    -10.111629    10.178719    5.076103    -12.116600    34.553692    11.984638    9.258045    7.800329    -4.643666    53.341053    21.709127    -5.031429    18.280603    23.902744    -0.375315    6.272052    -5.244715    37.198017    -16.077871    9.315141    -22.087162    35.822670    0.000000    0.000000    0.000000    -88.152214    -45.594952    -55.049431    7.924401    15.872335    -8.496079    21.944082    14.384057    -37.139111    0.000000    0.000000    0.000000    
-21.158442    163.250397    -80.353722    -8.523396    -22.019224    41.581249    2.915215    5.129153    -4.866257    4.771450    9.005554    -1.956141    21.524351    -0.775434    -0.780016    -0.444726    -1.122493    -4.266957    12.378723    7.335997    -21.160225    -36.315876    23.039585    -37.725338    -3.246312    -32.639595    -111.341148    -1.506225    -36.447384    -10.155701    10.139090    4.981181    -12.128111    34.498749    11.423131    9.376040    6.733602    -5.304240    54.343090    21.514629    -5.239938    18.392742    23.904783    -0.380457    6.231596    -5.281277    37.207859    -16.053049    9.317358    -22.091553    35.879391    0.000000    0.000000    0.000000    -88.151634    -45.605396    -55.075577    7.940411    15.884326    -8.497275    21.932215    14.381075    -37.136219    0.000000    0.000000    0.000000    
-21.154818    163.254715    -80.366508    -8.526067    -22.043673    41.565002    2.937020    5.128462    -4.864448    4.759667    9.007778    -1.954379    21.515600    -0.759126    -0.777290    -0.451578    -1.158358    -4.260739    12.368459    7.341358    -21.163830    -36.306656    23.043381    -37.719078    -3.245892    -32.626663    -111.359138    -1.483255    -36.437553    -10.149442    10.104285    4.914123    -12.166818    34.410900    10.858211    9.577995    5.697205    -5.954721    55.282837    21.137266    -5.476245    18.418749    23.913712    -0.360349    6.189662    -5.308998    37.203369    -16.031713    9.343897    -22.074007    35.917389    0.000000    0.000000    0.000000    -88.114532    -45.616909    -55.071228    7.938228    15.909245    -8.509447    21.922817    14.354800    -37.114578    0.000000    0.000000    0.000000    
